<mxfile host="app.diagrams.net" modified="2020-07-19T07:45:24.194Z" agent="5.0 (Macintosh; Intel Mac OS X 10_15_6) AppleWebKit/537.36 (KHTML, like Gecko) Chrome/84.0.4147.89 Safari/537.36" etag="dlB3Xp5lnsem_0R9mJMe" version="13.4.6" type="github">
  <diagram id="RvXBPyCz-wxKpQp5-ACP" name="第 1 页">
    <mxGraphModel dx="1186" dy="796" grid="1" gridSize="10" guides="1" tooltips="1" connect="1" arrows="1" fold="1" page="1" pageScale="1" pageWidth="827" pageHeight="1169" math="0" shadow="0">
      <root>
        <mxCell id="0" />
        <mxCell id="1" parent="0" />
        <mxCell id="bOQDfUDgVNBb-h7dHRjp-1" value="Actor" style="shape=umlActor;verticalLabelPosition=bottom;verticalAlign=top;html=1;" vertex="1" parent="1">
          <mxGeometry x="400" y="380" width="30" height="60" as="geometry" />
        </mxCell>
        <mxCell id="bOQDfUDgVNBb-h7dHRjp-2" style="edgeStyle=orthogonalEdgeStyle;rounded=0;orthogonalLoop=1;jettySize=auto;html=1;exitX=0.5;exitY=0.5;exitDx=0;exitDy=0;exitPerimeter=0;" edge="1" parent="1" source="bOQDfUDgVNBb-h7dHRjp-1">
          <mxGeometry relative="1" as="geometry">
            <mxPoint x="410" y="110" as="targetPoint" />
          </mxGeometry>
        </mxCell>
      </root>
    </mxGraphModel>
  </diagram>
</mxfile>
